# xmcd
#
# Track frame offsets:
#	150
#	15202
#	29137
#	40300
#	55737
#	75822
#
# Disc length: 1245 seconds
#
# Revision: 1
# Processed by: cddbd v1.5.2PL0 Copyright (c) Steve Scherf et al.
# Submitted via: audiograbber 1.83.01
#
DISCID=3804db06
DTITLE=Delevantes - Long About That Time - mini album
DYEAR=1995
DGENRE=Alt.Country
TTITLE0=Long About That Time (studio version)
TTITLE1=Pony Boy (live)
TTITLE2=Little Bit Of Heaven (live)
TTITLE3=Long About That Time (live)
TTITLE4=I Wish I Were A Cowboy (live)
TTITLE5=Pocketful Of Diamonds (live)
EXTD=
EXTT0=
EXTT1=
EXTT2=
EXTT3=
EXTT4=
EXTT5=
PLAYORDER=
